<?xml version="1.0" standalone="no"?>
<!DOCTYPE svg PUBLIC "-//W3C//DTD SVG 20010904//EN"
 "http://www.w3.org/TR/2001/REC-SVG-20010904/DTD/svg10.dtd">
<svg version="1.0" xmlns="http://www.w3.org/2000/svg"
 width="577.000000pt" height="433.000000pt" viewBox="0 0 577.000000 433.000000"
 preserveAspectRatio="xMidYMid meet">

<g transform="translate(0.000000,433.000000) scale(0.100000,-0.100000)"
fill="#000000" stroke="none">
<path d="M4789 3703 c-17 -3 -29 -12 -32 -25 -3 -11 -10 -17 -15 -14 -5 3 -8
-11 -6 -32 1 -20 7 -36 13 -35 6 2 15 -6 21 -18 9 -16 14 -18 25 -9 8 7 19 9
24 6 17 -11 58 39 51 60 -4 10 -5 25 -3 32 3 6 -2 12 -11 12 -9 0 -19 7 -22
15 -4 8 -9 14 -13 14 -3 -1 -18 -4 -32 -6z m32 -33 c25 -14 25 -56 -1 -70 -16
-8 -24 -6 -40 10 -20 20 -19 29 3 58 11 15 13 15 38 2z"/>
<path d="M948 3544 c-97 -52 -60 -214 50 -214 40 0 88 23 102 49 14 26 13 94
-2 126 -23 50 -95 69 -150 39z m95 -34 c73 -58 14 -179 -69 -141 -50 22 -57
89 -15 132 35 34 50 36 84 9z"/>
<path d="M1740 3490 c0 -63 2 -70 20 -70 18 0 20 7 20 70 0 63 -2 70 -20 70
-18 0 -20 -7 -20 -70z"/>
<path d="M2580 3539 c0 -6 -15 -9 -37 -7 -28 2 -38 -1 -38 -12 -2 -26 -17 -50
-31 -50 -17 0 -17 -1 1 -36 10 -20 11 -32 4 -41 -12 -14 -3 -36 12 -28 11 7
46 -16 47 -30 1 -14 22 -19 22 -5 0 8 12 11 36 8 33 -4 37 -1 46 24 6 16 18
33 28 38 17 9 17 12 3 41 -11 21 -12 33 -5 38 12 7 0 33 -14 30 -17 -4 -44 13
-44 27 0 8 -7 14 -15 14 -8 0 -15 -5 -15 -11z m28 -71 c19 -19 14 -55 -9 -72
-44 -30 -98 27 -62 66 19 21 53 24 71 6z"/>
<path d="M2554 3445 c-4 -9 -2 -21 4 -27 15 -15 44 -1 40 19 -4 23 -36 29 -44
8z m28 -10 c0 -5 -5 -11 -11 -13 -6 -2 -11 4 -11 13 0 9 5 15 11 13 6 -2 11
-8 11 -13z"/>
<path d="M1169 3471 c-37 -38 -39 -82 -4 -116 53 -54 155 -18 155 55 0 43 -47
90 -90 90 -22 0 -41 -9 -61 -29z m95 -23 c21 -30 20 -54 -4 -78 -21 -21 -46
-18 -67 8 -19 23 -16 49 7 72 26 26 45 25 64 -2z"/>
<path d="M1360 3380 c0 -100 3 -120 15 -120 11 0 15 12 15 45 0 42 11 58 25
35 3 -5 21 -10 40 -10 71 0 99 87 46 141 -33 32 -56 36 -88 14 -19 -13 -22
-13 -27 0 -3 8 -10 15 -16 15 -6 0 -10 -44 -10 -120z m108 74 c12 -8 22 -26
22 -40 0 -24 -31 -64 -50 -64 -18 0 -50 40 -50 62 0 23 26 58 44 58 6 0 22 -7
34 -16z"/>
<path d="M1582 3484 c-36 -25 -25 -55 28 -81 52 -25 60 -48 15 -47 -16 0 -38
4 -47 8 -13 6 -18 4 -18 -7 0 -33 96 -39 124 -8 28 31 12 57 -45 76 -58 20
-60 39 -3 41 58 2 61 3 40 19 -26 20 -66 19 -94 -1z"/>
<path d="M1740 3350 c0 -13 7 -20 20 -20 13 0 20 7 20 20 0 13 -7 20 -20 20
-13 0 -20 -7 -20 -20z"/>
<path d="M2030 3085 l0 -85 40 0 c22 0 40 5 40 10 0 6 -13 10 -30 10 -27 0
-30 3 -30 30 0 25 4 30 25 30 14 0 25 5 25 11 0 5 -10 9 -22 7 -19 -2 -24 2
-26 25 -3 24 0 27 27 27 17 0 31 5 31 10 0 6 -18 10 -40 10 l-40 0 0 -85z"/>
<path d="M2158 3089 c-2 -45 0 -83 5 -86 4 -2 7 12 7 31 0 49 30 49 53 1 9
-19 21 -35 27 -35 14 0 12 17 -6 45 -14 22 -14 25 5 44 12 12 21 27 21 34 0
24 -36 47 -73 47 l-35 0 -4 -81z m77 31 c0 -21 -5 -25 -30 -25 -25 0 -30 4
-33 28 -3 27 -1 28 30 25 28 -2 33 -7 33 -28z"/>
<path d="M2310 3085 c0 -50 4 -85 10 -85 6 0 10 16 10 35 0 24 5 35 14 35 8 0
24 -16 36 -35 12 -19 26 -35 31 -35 13 0 11 8 -8 41 -16 26 -16 29 0 47 39 43
11 82 -57 82 l-36 0 0 -85z m85 35 c0 -21 -5 -26 -32 -28 -31 -3 -33 -1 -33
28 0 29 2 31 33 28 27 -2 32 -7 32 -28z"/>
<path d="M2486 3149 c-20 -16 -26 -29 -26 -59 0 -55 27 -85 80 -85 53 0 80 30
80 85 0 45 -35 80 -80 80 -15 0 -39 -9 -54 -21z m96 -16 c39 -35 8 -113 -46
-113 -29 0 -56 34 -56 69 0 53 62 80 102 44z"/>
<path d="M2660 3085 c0 -50 4 -85 10 -85 6 0 10 16 10 35 0 23 5 35 14 35 8 0
23 -16 35 -35 11 -19 25 -35 31 -35 7 0 10 3 8 8 -2 4 -10 19 -17 34 -12 24
-12 30 2 46 36 40 9 82 -54 82 l-39 0 0 -85z m88 41 c5 -22 -13 -36 -45 -36
-19 0 -23 5 -23 31 0 28 2 30 32 27 23 -2 34 -9 36 -22z"/>
<path d="M1900 2693 c-63 -91 -141 -203 -172 -247 l-57 -81 -1 -77 0 -78 185
0 184 0 3 -72 3 -73 93 -3 92 -3 0 76 0 75 45 0 45 0 0 80 0 80 -45 0 -45 0 0
245 0 245 -107 0 -108 -1 -115 -166z m160 -188 l0 -135 -91 0 c-50 0 -89 4
-87 9 10 25 164 261 170 261 5 0 8 -61 8 -135z"/>
<path d="M2606 2845 c-46 -16 -110 -76 -137 -127 -36 -71 -52 -164 -46 -283 9
-187 56 -285 162 -340 51 -26 67 -29 144 -29 102 1 158 22 214 79 92 95 124
337 67 519 -27 86 -89 157 -157 180 -58 20 -193 20 -247 1z m184 -170 c54 -28
65 -65 65 -210 0 -140 -10 -176 -57 -209 -33 -23 -109 -21 -141 5 -36 27 -57
104 -57 204 0 100 21 177 57 204 31 25 91 28 133 6z"/>
<path d="M3433 2758 c-40 -57 -120 -170 -177 -253 l-106 -150 0 -72 0 -73 188
-2 187 -3 3 -72 3 -73 89 0 89 0 3 73 3 72 48 3 48 3 -3 77 -3 77 -47 3 -48 3
0 245 0 244 -103 0 -102 0 -72 -102z m104 -385 c-3 -2 -43 -3 -90 -1 l-86 3
42 65 c23 36 62 97 87 135 l45 70 3 -134 c1 -73 1 -136 -1 -138z"/>
<path d="M4484 2510 c-10 -4 -25 -5 -31 -3 -7 3 -13 -2 -13 -11 0 -9 -6 -19
-13 -22 -18 -7 -9 -74 9 -74 8 0 17 -6 20 -14 7 -19 50 -8 80 19 17 15 21 26
14 30 -6 4 -9 14 -6 22 9 22 -36 61 -60 53z m36 -50 c7 -13 5 -24 -9 -41 -18
-22 -19 -22 -45 -6 -31 21 -32 31 -6 57 22 22 45 18 60 -10z"/>
<path d="M1743 1879 c-51 -14 -83 -61 -83 -121 0 -44 4 -54 34 -84 30 -30 40
-34 86 -34 46 0 56 4 86 34 24 24 34 43 34 65 l0 31 -65 0 c-51 0 -65 -3 -65
-15 0 -11 12 -15 45 -15 51 0 59 -16 25 -50 -27 -27 -89 -27 -118 0 -41 39
-38 113 7 147 22 17 83 16 107 -2 25 -19 55 -20 48 -1 -14 36 -87 59 -141 45z"/>
<path d="M2573 1883 c-34 -6 -81 -59 -89 -98 -15 -83 40 -145 130 -145 41 0
53 5 82 34 30 30 34 40 34 84 0 40 -6 57 -26 81 -21 25 -84 55 -104 50 -3 -1
-15 -4 -27 -6z m96 -47 c22 -14 33 -75 21 -112 -21 -64 -109 -79 -150 -26 -40
50 -14 145 43 154 22 4 68 -5 86 -16z"/>
<path d="M3351 1882 c-110 -19 -138 -177 -41 -227 38 -19 109 -19 138 1 52 36
67 115 32 171 -27 45 -74 65 -129 55z m89 -58 c35 -34 34 -94 -2 -131 -58 -58
-148 -18 -148 66 0 89 86 127 150 65z"/>
<path d="M1200 1760 c0 -113 1 -120 20 -120 17 0 20 7 20 50 l0 50 45 0 c54 0
85 25 85 70 0 50 -30 70 -105 70 l-65 0 0 -120z m131 74 c9 -11 9 -21 1 -39
-10 -21 -19 -25 -52 -25 -40 0 -40 0 -40 38 0 21 2 41 5 43 9 10 75 -4 86 -17z"/>
<path d="M1451 1766 c-22 -62 -41 -116 -41 -120 0 -17 32 -3 40 19 9 22 15 25
63 25 48 0 55 -3 65 -25 11 -25 48 -37 39 -12 -3 6 -22 60 -42 120 -32 94 -39
107 -59 107 -20 0 -28 -14 -65 -114z m87 12 c11 -29 18 -56 15 -60 -6 -11 -71
-10 -77 0 -7 11 25 112 35 112 4 0 16 -24 27 -52z"/>
<path d="M1950 1760 l0 -120 65 0 c45 0 65 4 65 13 0 8 -16 12 -47 12 l-48 0
0 40 c0 40 0 40 43 43 28 2 42 8 42 18 0 10 -12 14 -45 14 -45 0 -45 0 -45 35
0 34 1 35 43 36 23 1 45 1 50 0 4 0 7 6 7 14 0 12 -14 15 -65 15 l-65 0 0
-120z"/>
<path d="M2230 1760 c0 -113 1 -120 20 -120 17 0 20 8 22 91 l3 91 60 -91 c84
-129 95 -125 95 29 0 99 -3 120 -15 120 -11 0 -15 -19 -17 -92 l-3 -92 -60 92
c-46 70 -65 92 -82 92 -23 0 -23 -2 -23 -120z"/>
<path d="M2770 1863 c0 -9 3 -14 6 -11 3 3 17 3 31 -1 26 -7 26 -7 24 -109 -2
-96 -1 -102 18 -102 19 0 21 7 23 108 l3 107 28 -1 c17 -1 27 4 27 12 0 11
-19 14 -80 14 -68 0 -80 -2 -80 -17z"/>
<path d="M3080 1760 c0 -98 3 -120 14 -120 11 0 16 15 18 53 l3 52 43 3 c23 2
42 7 42 12 0 5 -19 10 -42 12 -42 3 -43 4 -46 41 l-3 37 55 0 c43 0 56 3 56
15 0 12 -14 15 -70 15 l-70 0 0 -120z"/>
<path d="M3550 1786 c0 -78 3 -97 20 -118 23 -30 60 -39 107 -26 47 13 63 54
63 158 0 73 -2 80 -20 80 -19 0 -20 -7 -20 -93 0 -105 -6 -117 -62 -117 -50 0
-58 18 -58 124 0 70 -3 86 -15 86 -12 0 -15 -17 -15 -94z"/>
<path d="M3800 1760 c0 -99 3 -120 15 -120 11 0 15 19 17 93 l3 92 63 -92 c43
-65 69 -93 82 -93 19 0 20 7 20 120 0 113 -1 120 -20 120 -17 0 -20 -8 -22
-91 l-3 -91 -58 91 c-41 63 -65 91 -78 91 -18 0 -19 -9 -19 -120z"/>
<path d="M4060 1760 l0 -120 60 0 c72 0 114 19 135 60 31 60 10 137 -45 165
-16 8 -55 15 -90 15 l-60 0 0 -120z m149 64 c14 -17 21 -41 21 -69 0 -55 -29
-83 -90 -87 l-45 -3 -3 93 -3 92 50 0 c42 0 53 -4 70 -26z"/>
<path d="M4600 1627 c0 -16 -40 -40 -61 -35 -11 2 -13 -6 -11 -38 2 -30 -1
-43 -12 -47 -20 -8 -21 -37 -1 -37 18 0 38 -36 29 -51 -9 -15 17 -30 32 -18
14 11 64 -5 64 -21 0 -5 7 -10 15 -10 8 0 15 6 15 14 0 19 26 39 53 40 19 1
22 7 22 40 0 23 5 41 13 43 20 7 14 29 -13 47 -15 10 -25 26 -25 40 0 21 -4
23 -42 22 -25 0 -43 4 -46 12 -5 16 -32 15 -32 -1z m70 -77 c37 -37 14 -100
-35 -100 -55 0 -74 82 -25 107 33 17 37 16 60 -7z"/>
<path d="M4605 1520 c-8 -26 6 -43 31 -38 13 2 19 12 19 28 0 34 -40 41 -50
10z m43 -12 c-6 -18 -28 -21 -28 -4 0 9 7 16 16 16 9 0 14 -5 12 -12z"/>
<path d="M1940 1391 c-18 -5 -26 -15 -28 -36 -5 -39 -18 -47 -70 -40 -62 9
-71 -7 -72 -119 0 -110 10 -127 70 -116 48 9 68 -3 72 -45 3 -25 9 -30 38 -36
27 -6 39 -3 56 12 27 25 81 25 108 0 17 -15 29 -18 56 -12 30 6 36 11 40 41 5
35 5 35 56 35 77 1 84 11 84 119 -1 114 -11 131 -72 122 -52 -7 -65 0 -70 38
-2 24 -9 31 -37 39 -28 7 -37 5 -55 -12 -29 -28 -87 -28 -111 -1 -19 21 -25
22 -65 11z m195 -183 c14 -6 25 -15 25 -19 0 -32 -133 -44 -184 -17 l-30 15
30 16 c34 19 122 22 159 5z"/>
<path d="M3289 1246 c-1 -3 -2 -11 -3 -17 0 -6 -8 -16 -16 -22 -8 -7 -15 -29
-16 -49 0 -30 4 -38 23 -43 13 -3 23 -12 23 -20 0 -8 5 -15 10 -15 6 0 10 5
10 11 0 7 11 9 30 6 22 -5 30 -3 30 8 0 8 9 19 21 25 16 9 18 14 8 26 -6 7 -9
23 -6 34 3 11 1 20 -4 20 -5 0 -18 9 -30 21 -16 16 -23 18 -35 8 -11 -9 -17
-9 -29 1 -8 7 -16 10 -16 6z m83 -61 c10 -22 9 -29 -10 -47 -18 -19 -25 -20
-47 -10 -44 20 -28 82 22 82 15 0 27 -9 35 -25z"/>
<path d="M2678 1093 c-4 -39 -59 -53 -117 -29 -40 15 -43 15 -81 -4 -39 -20
-40 -22 -40 -70 l0 -50 -35 0 -35 0 0 -69 0 -68 38 -6 c36 -6 37 -7 37 -52 0
-42 3 -48 37 -67 36 -21 38 -21 77 -3 58 26 110 14 118 -26 5 -28 8 -29 58
-29 50 0 54 2 63 29 14 40 67 51 122 26 37 -17 40 -17 72 2 29 17 33 25 36 65
3 44 5 46 37 52 19 4 37 11 41 17 3 6 3 37 -1 69 -7 57 -8 59 -38 62 -30 3
-32 6 -37 53 -4 43 -9 51 -39 69 -33 19 -33 19 -75 -1 -57 -27 -111 -15 -120
28 -5 28 -8 29 -60 29 -52 0 -55 -1 -58 -27z m157 -217 c19 -8 35 -18 35 -21
0 -15 -75 -35 -130 -35 -55 0 -130 20 -130 35 0 3 15 12 33 20 42 19 148 19
192 1z"/>
</g>
</svg>
